<?xml version="1.0" encoding="UTF-8"?><svg id="Hat" xmlns="http://www.w3.org/2000/svg" viewBox="0 0 2000 2000"><defs><style>.cls-1{fill:none;opacity:.35;}.cls-2{fill:#050709;}.cls-3{fill:#c41f00;}.cls-4{fill:#323232;}.cls-5{fill:#333;}.cls-6{fill:#444;}.cls-7{fill:#212121;stroke-linecap:round;stroke-linejoin:round;stroke-width:8px;}.cls-7,.cls-8{stroke:#fff;}.cls-9{letter-spacing:.3em;}.cls-10{letter-spacing:.3em;}.cls-11{letter-spacing:.29em;}.cls-12{letter-spacing:.3em;}.cls-13{letter-spacing:.3em;}.cls-14{letter-spacing:.3em;}.cls-15{letter-spacing:.3em;}.cls-16{letter-spacing:.32em;}.cls-8{font-family:AcuminConcept-CondBlack, 'Acumin Variable Concept';font-size:249.08px;font-variation-settings:'wght' 800, 'wdth' 67, 'slnt' 0;font-weight:800;stroke-miterlimit:10;}.cls-17{letter-spacing:.28em;}.cls-18{letter-spacing:.3em;}</style></defs><path class="cls-2" d="m1000,1496.44c200.37,0,362.34-23.47,468.29-40.12,228.16-35.85,310.85-102.18,310.84-134.08,0-23.62-73.7-61.26-109.12-66.04-39.11-5.28-167.82-9.89-220.79-41.16-15.21-8.98-25.48-20.99-41.54-31.18-15.42-9.78-28.62-22.63-39.84-37.03-13-16.7-31.35-36.88-43.73-56.99-7.65-12.43-11.94-26.69-12.39-41.27-3.16-103.36-168.43-755.46-189.21-814.94-8.51-24.37-16.21-49-25.16-73.22-10.99-29.75-23.13-59.51-39.54-86.74-11.61-19.26-28-43.45-51.6-48.56-63.08-13.66-112.41,21.88-158.38,60.39-51.73,43.34-87.05,94.82-124.96,149.56-32.04,46.27-66.35,91.42-103.89,133.38-11.43,12.77-22.6,25.77-35.4,37.21-12.83,11.46-29.48,17.1-41.64,29.45-10.16,10.32-17.26,28.97-11.28,43.03,11.06,26,47.66,28.12,71.7,29.27,74.02,3.54,138.53-31.09,192.36-79.09,7.31-6.52,14.45-13.23,21.46-20.08,4.3-4.2,17.36-13.29,18.83-19-55.82,216.33-144.43,583.91-146.74,659.33-.45,14.59-4.73,28.85-12.39,41.27-12.38,20.11-30.73,40.29-43.73,56.99-11.22,14.41-24.42,27.26-39.84,37.03-16.06,10.18-26.34,22.2-41.54,31.18-52.96,31.27-181.68,35.87-220.79,41.16-35.42,4.79-109.11,42.43-109.12,66.04,0,31.91,84.15,89.92,310.84,134.08,110.95,21.62,267.92,40.12,468.29,40.12Z"/><path class="cls-4" d="m1023.93,72.18c28.72,31.59,157.93,400.1,131.13,625.99,5.74-19.14,18.19-62.22,22.01-99.55,16.27,57.43,46.26,160.8,52.64,215.68,6.38,54.88,58.71,225.89,44.67,270.56-14.04,44.67-90.61,113.58-172.29,121.24,82.32,7.66,195.04-88.39,201-82.95,20.56,18.73,56.79,45.31,38.29,71.47-94.93,134.21-645.13,136.56-772.59,41.48,26.8-22.97,36.37-27.76,52.64-37.33,16.27-9.57,50.57-70.51,77.37-91.57,26.8-21.06,33.4-159,38.29-192.07,25.52-172.93,119.33-442.85,119.33-586.42-50.73,81.36-138.15,121.45-167.5,135.49-29.35,14.04-110.07,18.29-126.67,13.19-16.59-5.1-8.9-18.04,8.93-29.35,29.67-18.82,125.71-137.51,155.06-175.8,29.35-38.29,94.23-119.86,114.22-141.98,15.92-17.61,63.81-50.41,93.7-64.77,21.65-10.4,69.66-13.34,89.76,6.7Z"/><path class="cls-5" d="m1439.34,1245.67c36.69,11.49,190.61,27.45,220.47,31.91,17.58,2.63,86.78,21.7,89.34,43.39,2.55,21.7-54.88,66.36-126.35,81.68-71.47,15.31-140.35,23.38-216.96,30.63-363.94,34.46-493.9,34.46-830.82,0-156.73-16.03-249.5-56.15-263.22-61.26-13.72-5.1-66.04-37.01-64.77-45.94,1.28-8.93,41.48-38.29,64.77-40.84,23.29-2.55,126.67-12.76,148.36-14.04,20.42,26.8,49.77,51.05,71.47,57.43,0,0-19.78-14.09-27.44-28.87-7.66-14.79-12.12-34.94-10.85-38.77,1.28-3.83,32.86-10.27,39.24-11.49-.54.1,55.36,39.58,73.86,47.67,60.93,26.66,128.45,30.69,193.91,35.52,160.62,11.84,334.07,17.52,484.41-49.55,19.97-8.89,39.38-19.46,56.75-32.79,4.53-3.48,44.6-37.9,40.07-43.6,29.67,37.33-22.5,100.18-45.07,107.84,46.35-17.23,88.46-27.76,102.82-68.92Z"/><g class="cls-1"><path class="cls-2" d="m806.49,1333.13c158.9,11.53,329.85,16.22,478.28-49.99,19.97-8.89,39.38-19.46,56.75-32.79,4.53-3.48,44.6-37.9,40.07-43.6,29.67,37.33-22.5,100.18-45.07,107.84,46.35-17.23,88.46-27.76,102.82-68.92,36.69,11.49,190.61,27.45,220.47,31.91,17.58,2.63,86.78,21.7,89.34,43.39,2.55,21.7-54.88,66.36-126.35,81.68-70.27,15.06-138.08,22.71-213.12,30.24-96.73-9.62-180.09-23.91-210.59-34.07,59.34,0,84.23-9.57,135.92-28.72-67.95,13.29-306.85,10.05-528.52-36.97Z"/><path class="cls-2" d="m1161.76,859.93c-13.08,83.91-66.04,148.36-123.47,178.99,81.49-123.86,1.91-890.86-104.12-973.44,21.65-10.4,69.66-13.34,89.76,6.7,28.72,31.59,157.93,400.1,131.13,625.99,5.74-19.14,18.19-62.22,22.01-99.55,16.27,57.43,46.26,160.8,52.64,215.68,6.38,54.88,58.71,225.89,44.67,270.56-14.04,44.67-90.61,113.58-172.29,121.24,82.32,7.66,195.04-88.39,201.01-82.95,20.56,18.73,56.79,45.31,38.29,71.47-77.9,110.13-462.35,131.47-668.23,83.05,305.34-22.4,479.25-280.48,488.6-417.74Z"/></g><g class="cls-1"><path class="cls-6" d="m571.19,448.03c29.67-18.82,125.71-137.51,155.06-175.8,23.91-31.18,71.37-91.07,98.96-124.17,48.44,26.12,56.66,146.31,59.93,174.9,7.66,67-30.63,361.81-63.17,413.5,44.03-53.6,56.5-77.96,64.16-100.93-9.95,98.07-85.81,239.01-155.58,343.36,2.92-27.76,4.84-52.19,6.55-63.76,25.52-172.93,119.33-442.85,119.33-586.42-50.73,81.36-138.15,121.45-167.5,135.49-29.35,14.04-110.07,18.29-126.67,13.19s-8.9-18.04,8.93-29.35Z"/><path class="cls-6" d="m529.71,1327.19c-5.15-3.94-19.32-15.46-25.52-27.45-7.66-14.79-12.12-34.94-10.85-38.77,1.28-3.83,32.86-10.27,39.24-11.49-16.27,8.93-23.29,14.04-25.84,15.95,0,7.4,4.77,47.02,22.97,61.74Z"/><path class="cls-6" d="m392.55,1400.35c-46.16-13.31-73.75-25.73-80.75-28.34-13.72-5.1-66.04-37.01-64.77-45.94,1.28-8.93,41.48-38.29,64.77-40.84,23.29-2.55,126.67-12.76,148.36-14.04,2.91,3.82,6.02,7.58,9.24,11.25-27.43,2.47-147.07,14.92-164.3,25.44-17.23,10.53-33.5,13.72-29.67,20.74,3.82,7,22.05,43.82,117.12,71.73Z"/></g><rect class="cls-7" x="126.68" y="849.32" width="1746.65" height="175.88"/><path class="cls-7" d="m1290.05,1171.27c0,43.2,40.86,78.22,91.27,78.22h83.66c50.39,0,91.26-35.02,91.26-78.22v-468.02c0-43.19-40.86-78.22-91.26-78.22h-83.66c-50.41,0-91.27,35.03-91.27,78.22v468.02Z"/><path class="cls-7" d="m697.22,1171.27c0,43.2-40.85,78.22-91.26,78.22h-83.66c-50.4,0-91.26-35.02-91.26-78.22v-468.02c0-43.19,40.86-78.22,91.26-78.22h83.66c50.41,0,91.26,35.03,91.26,78.22v468.02Z"/><path class="cls-7" d="m431.05,1126.99c0,35.03-33.13,63.43-73.99,63.43h-67.83c-40.86,0-73.99-28.4-73.99-63.43v-379.45c0-35.02,33.13-63.41,73.99-63.41h67.83c40.86,0,73.99,28.39,73.99,63.41v379.45Z"/><path class="cls-7" d="m1556.03,1126.99c0,35.03,33.13,63.43,73.99,63.43h67.82c40.86,0,73.99-28.4,73.99-63.43v-379.45c0-35.02-33.13-63.41-73.99-63.41h-67.82c-40.86,0-73.99,28.39-73.99,63.41v379.45Z"/><text class="cls-8" transform="translate(276.8 1669.52)"><tspan class="cls-3"><tspan class="cls-11" x="0" y="0">W</tspan><tspan class="cls-18" x="248.08" y="0">O</tspan><tspan class="cls-15" x="453.83" y="0">R</tspan><tspan class="cls-17" x="654.33" y="0">K</tspan><tspan class="cls-13" x="850.61" y="0">OUT</tspan></tspan><tspan class="cls-12" x="133.26" y="230">W</tspan><tspan class="cls-9" x="381.6" y="230">I</tspan><tspan class="cls-16" x="519.83" y="230">Z</tspan><tspan class="cls-10" x="710.38" y="230">A</tspan><tspan class="cls-15" x="907.4" y="230">R</tspan><tspan class="cls-14" x="1107.91" y="230">D</tspan></text></svg>