<?xml version="1.0" standalone="no"?>
<!DOCTYPE svg PUBLIC "-//W3C//DTD SVG 20010904//EN"
 "http://www.w3.org/TR/2001/REC-SVG-20010904/DTD/svg10.dtd">
<svg version="1.0" xmlns="http://www.w3.org/2000/svg"
 width="2000.000000pt" height="2000.000000pt" viewBox="0 0 2000.000000 2000.000000"
 preserveAspectRatio="xMidYMid meet">
<metadata>
Created by potrace 1.14, written by Peter Selinger 2001-2017
</metadata>
<g transform="translate(0.000000,2000.000000) scale(0.100000,-0.100000)"
fill="#000000" stroke="none">
<path d="M9669 19777 c-2 -3 -26 -7 -54 -10 -303 -36 -631 -207 -1050 -549
-230 -187 -401 -352 -589 -569 -138 -158 -142 -163 -196 -234 -25 -33 -47 -62
-51 -65 -3 -3 -18 -23 -35 -45 -16 -22 -34 -46 -41 -55 -20 -24 -203 -280
-256 -356 -393 -566 -706 -989 -914 -1234 -12 -14 -63 -74 -115 -135 -51 -60
-103 -121 -115 -135 -12 -14 -31 -36 -43 -50 -48 -56 -189 -210 -260 -283
-100 -103 -186 -172 -295 -237 -190 -112 -264 -180 -320 -290 -126 -249 -5
-477 295 -555 208 -54 572 -67 820 -29 244 37 521 128 745 244 131 69 323 184
392 236 15 12 68 52 117 89 48 37 100 77 115 90 14 12 49 42 76 65 57 48 324
291 397 361 27 26 46 39 44 30 -3 -9 -17 -63 -31 -121 -14 -58 -28 -112 -30
-120 -12 -44 -277 -1097 -280 -1110 -2 -8 -26 -109 -55 -225 -29 -115 -53
-214 -55 -220 -1 -5 -5 -21 -8 -35 -4 -14 -32 -128 -63 -255 -30 -126 -69
-286 -85 -355 -17 -69 -32 -132 -34 -140 -2 -8 -26 -110 -53 -225 -28 -116
-53 -221 -56 -235 -3 -14 -16 -72 -30 -130 -14 -58 -32 -134 -41 -170 -8 -36
-39 -171 -69 -301 -31 -130 -57 -247 -60 -260 -10 -47 -15 -71 -20 -87 -3 -9
-7 -28 -10 -42 -2 -14 -14 -68 -26 -120 -12 -52 -35 -153 -50 -223 -15 -71
-30 -131 -33 -134 -4 -4 -150 -6 -218 -4 -15 1 -16 65 -17 739 0 405 -3 757
-7 782 -15 106 -61 220 -128 320 -70 105 -233 241 -357 298 -53 25 -183 69
-225 76 -17 3 -41 9 -55 13 -37 10 -1108 14 -1160 4 -25 -5 -58 -12 -75 -15
-184 -32 -366 -127 -500 -261 -106 -106 -176 -223 -209 -350 -22 -87 -24 -108
-25 -224 l-1 -103 -43 58 c-85 114 -200 200 -338 253 -148 57 -191 60 -699 57
-477 -3 -479 -3 -620 -58 -178 -70 -324 -201 -397 -357 -59 -124 -60 -144 -60
-709 0 -282 -3 -515 -6 -518 -3 -3 -197 -6 -431 -6 -349 0 -428 -3 -437 -14
-16 -19 -16 -1801 -1 -1816 7 -7 156 -10 441 -10 317 0 431 -3 432 -12 0 -6 0
-234 0 -506 0 -427 5 -549 23 -615 2 -5 7 -23 11 -40 21 -77 105 -198 189
-275 115 -105 288 -179 461 -197 93 -10 840 -9 900 1 77 12 89 15 173 41 7 3
14 5 17 5 13 0 115 56 165 90 80 54 134 105 177 168 l38 55 6 -124 c7 -133 16
-184 50 -275 56 -150 174 -291 333 -397 l39 -26 -39 -7 c-22 -3 -48 -8 -59
-10 -11 -3 -51 -9 -90 -14 -38 -6 -81 -12 -95 -15 -14 -2 -50 -6 -80 -10 -30
-4 -66 -8 -80 -10 -25 -4 -80 -10 -182 -20 -29 -3 -69 -8 -88 -10 -49 -6 -151
-15 -218 -20 -31 -3 -77 -7 -102 -9 -25 -3 -76 -8 -115 -11 -38 -3 -86 -8
-105 -10 -19 -2 -64 -7 -100 -11 -215 -21 -581 -169 -841 -339 -116 -76 -251
-204 -274 -258 -72 -174 137 -405 580 -642 265 -141 705 -311 1129 -436 263
-77 297 -86 371 -105 6 -1 46 -12 91 -23 45 -12 90 -23 100 -25 11 -2 39 -9
64 -16 25 -7 52 -13 60 -15 8 -2 55 -13 105 -24 49 -12 133 -31 185 -42 53
-10 105 -21 116 -24 80 -17 270 -56 319 -64 33 -6 71 -14 85 -16 21 -5 84 -16
220 -40 14 -3 36 -7 50 -10 45 -8 394 -64 440 -70 25 -3 56 -8 70 -10 14 -2
45 -7 70 -10 25 -3 56 -8 70 -10 14 -2 50 -7 80 -10 30 -4 66 -8 80 -10 14 -2
45 -6 70 -10 25 -3 61 -7 80 -10 97 -13 119 -15 165 -20 55 -5 130 -13 185
-20 19 -3 87 -9 150 -15 156 -15 208 -20 255 -25 22 -3 74 -7 115 -11 41 -3
93 -7 115 -9 22 -2 83 -6 135 -10 52 -4 118 -8 145 -11 46 -3 82 -6 300 -19
278 -18 583 -30 990 -41 502 -13 1527 -7 1825 11 36 2 130 7 210 10 80 3 172
8 205 10 33 2 105 7 160 10 55 3 123 8 150 10 28 2 95 6 150 10 207 14 338 24
380 30 17 2 66 6 110 10 44 3 98 7 120 10 22 3 67 7 100 10 33 3 76 8 95 10
19 2 67 7 105 10 39 4 77 8 85 10 8 2 48 7 89 10 41 4 82 8 91 10 10 2 53 6
96 10 43 4 81 9 84 10 3 2 34 6 70 10 36 3 77 8 91 11 15 2 47 6 70 9 24 3 60
7 79 10 162 21 208 27 230 30 14 2 45 7 70 10 25 3 52 8 60 10 8 2 42 6 75 10
33 3 67 8 75 10 8 2 38 6 65 10 28 3 88 12 135 20 47 7 107 16 133 20 27 4 58
8 70 11 12 2 39 6 62 9 48 7 62 9 185 29 98 16 103 17 235 41 44 8 95 17 112
20 90 15 328 65 503 105 52 12 102 23 110 25 8 2 44 11 80 20 36 9 72 18 80
20 150 30 760 230 915 300 17 7 64 28 105 46 174 74 444 220 550 298 154 112
283 243 328 334 75 151 29 242 -216 425 -147 109 -472 265 -682 325 -111 32
-183 43 -405 62 -38 3 -88 8 -110 10 -22 3 -69 7 -105 10 -104 8 -182 15 -225
20 -38 4 -74 8 -182 20 -27 3 -65 7 -85 10 -21 3 -57 7 -80 10 -59 8 -307 45
-338 51 -14 2 -41 7 -60 10 -63 9 -65 13 -17 45 65 43 167 146 215 216 96 142
135 276 135 460 -1 46 2 83 6 83 3 0 17 -17 31 -38 63 -94 191 -193 322 -248
148 -63 195 -68 658 -68 438 0 505 4 610 36 255 76 448 263 510 493 11 38 14
171 15 576 1 289 5 531 8 536 5 7 172 11 498 11 320 0 494 3 501 10 15 15 14
1798 -2 1817 -9 11 -97 13 -501 13 -269 0 -492 2 -496 5 -3 4 -7 248 -8 544
-2 484 -4 544 -20 593 -81 253 -297 433 -595 496 -19 4 -235 9 -480 10 -419 3
-451 2 -540 -17 -116 -26 -206 -63 -298 -124 -70 -46 -168 -142 -203 -198
l-17 -30 0 94 c1 107 -8 186 -28 241 -7 21 -11 38 -9 38 2 0 -12 33 -32 73
-112 230 -306 389 -576 472 -45 14 -98 28 -117 31 -19 4 -280 8 -580 10 -455
3 -559 1 -630 -12 -379 -68 -670 -317 -749 -639 -18 -75 -19 -123 -20 -829 -1
-412 -3 -751 -5 -753 -5 -6 -96 -6 -102 -1 -5 5 -68 279 -79 343 -3 17 -8 38
-11 47 -3 9 -7 27 -9 40 -3 13 -12 52 -21 88 -9 36 -18 74 -20 85 -8 48 -140
615 -219 945 -36 151 -70 297 -75 323 -6 27 -12 52 -14 56 -3 4 -8 23 -11 42
-3 19 -10 48 -15 64 -5 17 -48 192 -96 390 -48 198 -145 594 -216 880 -71 286
-131 527 -133 535 -2 8 -24 96 -50 195 -25 99 -48 187 -50 195 -2 8 -13 53
-25 100 -12 47 -23 93 -25 103 -2 9 -6 21 -9 25 -3 5 -8 24 -11 43 -5 30 -77
310 -105 409 -11 40 -32 120 -36 135 -5 25 -152 570 -184 685 -11 41 -22 82
-24 91 -28 116 -258 802 -365 1088 -208 557 -424 949 -629 1142 -136 128 -248
167 -503 175 -80 3 -147 3 -150 1z"/>
<path d="M5780 5006 c-149 -27 -271 -117 -342 -252 -38 -72 -73 -174 -83 -241
-3 -21 -7 -50 -10 -63 -17 -85 -23 -400 -10 -515 21 -195 49 -304 105 -414 59
-117 158 -199 285 -237 95 -29 277 -24 380 10 133 43 222 124 286 259 29 62
65 187 73 256 24 186 27 460 7 616 -33 257 -125 434 -269 522 -96 59 -280 85
-422 59z m183 -317 c34 -19 56 -50 72 -104 25 -87 27 -105 32 -361 6 -269 -6
-446 -34 -534 -41 -127 -176 -151 -232 -41 -42 81 -54 191 -55 471 -1 394 16
503 91 559 31 23 92 28 126 10z"/>
<path d="M11800 5007 c-80 -16 -170 -56 -226 -102 -106 -87 -191 -279 -210
-472 -3 -32 -8 -64 -10 -72 -6 -18 -5 -346 0 -413 23 -258 80 -425 185 -539
87 -97 201 -142 361 -143 195 -2 297 33 408 138 137 130 198 370 196 771 -3
477 -124 735 -384 816 -81 25 -232 33 -320 16z m190 -324 c37 -25 48 -42 65
-98 26 -85 30 -140 30 -435 0 -334 -8 -420 -48 -497 -24 -46 -64 -73 -106 -73
-51 0 -83 19 -108 65 -22 40 -25 50 -45 160 -13 70 -17 548 -5 649 18 167 66
246 149 246 25 0 54 -7 68 -17z"/>
<path d="M2793 4958 c3 -18 10 -64 16 -103 7 -38 14 -81 16 -95 2 -14 13 -81
25 -150 11 -69 23 -136 25 -150 2 -14 14 -83 25 -155 12 -71 24 -143 27 -160
4 -26 25 -152 37 -225 3 -14 25 -151 50 -305 26 -154 48 -289 51 -300 4 -20
12 -20 205 -20 110 0 200 3 200 6 0 3 20 116 45 250 25 134 55 300 66 369 11
69 22 136 25 150 18 106 26 158 26 178 1 35 18 26 19 -10 0 -18 2 -40 3 -48 2
-8 7 -41 10 -74 4 -32 9 -68 11 -80 2 -11 16 -93 30 -181 15 -88 40 -236 56
-330 17 -93 32 -181 34 -194 2 -13 7 -26 10 -30 7 -6 395 -9 395 -2 0 4 124
696 195 1091 79 441 105 585 105 593 0 4 -87 7 -193 7 l-193 0 -13 -122 c-7
-68 -14 -134 -16 -148 -2 -14 -6 -52 -10 -85 -3 -33 -10 -96 -15 -140 -5 -44
-12 -109 -15 -145 -4 -36 -8 -78 -10 -95 -2 -16 -9 -84 -15 -150 -7 -66 -13
-129 -15 -140 -2 -11 -4 -42 -5 -70 l-2 -50 -8 40 c-4 22 -11 65 -15 95 -5 47
-38 283 -50 360 -2 14 -6 45 -10 70 -4 25 -9 58 -11 74 -6 40 -64 422 -71 469
l-6 38 -168 -1 -168 -2 -5 -26 c-3 -15 -8 -52 -12 -82 -3 -30 -8 -62 -9 -70
-2 -8 -8 -51 -15 -95 -7 -44 -14 -89 -16 -100 -2 -11 -6 -38 -9 -60 -3 -22
-10 -65 -15 -95 -14 -84 -17 -102 -44 -285 -43 -292 -48 -326 -51 -323 -1 2
-5 53 -9 113 -4 61 -9 124 -11 140 -2 17 -7 64 -10 105 -3 41 -8 95 -11 120
-2 25 -11 115 -19 200 -9 85 -17 171 -20 190 -2 19 -7 62 -10 95 -4 33 -9 85
-13 115 l-7 55 -208 3 -209 2 5 -32z"/>
<path d="M7432 4143 l3 -848 185 -1 c102 0 190 1 195 3 6 2 10 124 9 343 l-2
340 47 1 c93 3 136 -7 166 -37 37 -37 46 -90 50 -305 3 -201 11 -302 25 -329
7 -13 38 -15 197 -15 118 1 187 5 186 11 -5 30 -14 230 -15 364 -2 170 -16
267 -47 329 -21 41 -82 107 -117 127 -17 10 -16 12 14 28 116 60 182 222 169
415 -12 184 -92 309 -237 373 -88 39 -168 46 -506 48 l-324 1 2 -848z m606
521 c45 -34 63 -83 63 -175 0 -151 -44 -197 -191 -204 -68 -4 -80 -2 -83 13
-4 14 -2 361 2 385 0 5 42 6 91 4 70 -3 97 -8 118 -23z"/>
<path d="M9437 4983 c-4 -3 -7 -383 -7 -844 0 -661 3 -838 13 -841 6 -2 93 -4
192 -4 l180 1 5 260 5 260 50 77 c28 43 52 78 55 78 3 0 26 -62 52 -138 26
-75 78 -227 115 -337 l68 -200 218 0 c190 0 217 2 211 15 -3 8 -59 159 -125
335 -66 176 -124 329 -129 340 -5 11 -36 91 -69 179 l-59 158 189 329 c104
181 189 332 189 334 0 3 -98 5 -217 5 l-218 0 -32 -63 c-18 -34 -93 -186 -167
-337 l-135 -275 -1 338 0 337 -188 0 c-104 0 -192 -3 -195 -7z"/>
<path d="M13439 4973 c-4 -85 -3 -113 4 -113 5 0 5 -5 1 -12 -6 -9 -7 -166 -4
-528 0 -8 -1 -66 -2 -128 -2 -61 1 -112 5 -112 5 0 5 -5 1 -11 -10 -16 -11
-229 -1 -229 4 0 4 -7 -1 -15 -12 -22 5 -168 28 -245 17 -57 52 -123 92 -171
37 -44 115 -91 196 -115 74 -23 105 -27 212 -27 147 -1 220 13 316 58 131 63
220 194 243 360 7 52 11 297 11 693 l0 612 -200 0 -200 0 0 -617 c-1 -340 -3
-636 -6 -658 -14 -91 -61 -135 -147 -135 -67 0 -105 27 -133 92 -16 40 -17 94
-18 678 l-1 635 -198 3 c-183 2 -197 1 -198 -15z"/>
<path d="M15419 4963 c-1 -41 -1 -243 0 -275 l1 -28 164 0 165 0 0 -647 c0
-357 0 -664 0 -683 l1 -35 188 0 c103 0 192 3 197 7 7 4 10 240 10 682 l0 676
165 0 165 0 0 163 0 162 -528 3 -527 2 -1 -27z"/>
<path d="M4120 2685 c0 -7 38 -247 45 -285 6 -38 54 -319 61 -365 14 -92 164
-1002 169 -1020 4 -19 12 -20 205 -20 110 0 200 1 200 2 0 0 22 124 49 275 64
352 111 637 111 671 0 26 16 40 17 15 1 -21 13 -116 28 -213 8 -49 17 -108 20
-130 4 -22 15 -89 25 -150 11 -60 22 -128 25 -150 4 -22 8 -47 10 -55 2 -8 7
-31 10 -50 3 -19 10 -62 16 -95 6 -33 12 -71 14 -84 2 -13 7 -26 10 -30 4 -3
94 -6 200 -6 l193 0 12 60 c7 33 14 74 17 90 2 17 20 118 39 225 20 107 42
233 50 280 8 47 24 135 35 195 11 61 33 184 49 275 16 91 45 253 64 360 20
107 36 198 36 203 0 4 -88 7 -195 7 l-195 0 -1 -27 c-1 -16 -1 -30 -1 -33 0
-3 -3 -37 -8 -75 -5 -39 -12 -101 -15 -140 -4 -38 -9 -79 -11 -90 -2 -10 -6
-49 -9 -85 -3 -36 -8 -76 -10 -90 -2 -14 -7 -54 -10 -90 -4 -36 -8 -81 -10
-100 -2 -19 -6 -66 -10 -105 -4 -38 -8 -80 -10 -92 -2 -12 -7 -62 -10 -112 -4
-51 -9 -90 -10 -89 -2 2 -13 73 -25 158 -26 186 -24 172 -55 390 -14 96 -28
184 -30 195 -2 11 -7 40 -10 65 -3 25 -7 54 -9 65 -2 11 -11 73 -21 138 l-18
117 -167 0 -168 0 -7 -42 c-4 -24 -8 -54 -10 -68 -5 -39 -17 -113 -21 -135 -2
-11 -7 -42 -10 -70 -3 -27 -7 -57 -10 -64 -3 -8 -7 -35 -10 -60 -3 -26 -7 -53
-9 -61 -3 -8 -7 -36 -10 -62 -3 -25 -8 -56 -10 -69 -3 -13 -7 -41 -10 -64 -4
-22 -8 -51 -10 -65 -2 -14 -16 -104 -31 -200 -14 -96 -28 -177 -30 -179 -2 -2
-4 20 -5 50 0 30 -2 65 -4 79 -1 14 -6 61 -9 105 -9 118 -36 406 -41 435 -2
14 -7 66 -11 115 -3 50 -8 99 -11 110 -2 11 -6 47 -9 80 -2 33 -8 83 -12 110
l-7 50 -208 3 c-114 1 -207 0 -207 -3z"/>
<path d="M6705 2678 c-3 -7 -4 -389 -3 -848 l3 -835 195 0 195 0 3 848 2 847
-195 0 c-147 0 -197 -3 -200 -12z"/>
<path d="M8057 2683 c-4 -3 -7 -78 -7 -165 l0 -158 271 0 270 0 -92 -177 c-50
-98 -106 -205 -124 -238 -18 -33 -81 -152 -140 -265 -59 -113 -134 -255 -166
-317 l-59 -112 0 -128 0 -128 500 0 c436 0 501 2 505 15 5 19 36 243 38 283
l2 29 -261 1 c-143 0 -265 -3 -271 -6 -7 -4 -14 -3 -18 3 -4 6 -11 8 -16 5 -5
-4 -9 -3 -9 0 0 3 67 137 149 298 82 161 205 402 273 537 l124 245 -1 140 0
140 -481 3 c-264 1 -484 -1 -487 -5z"/>
<path d="M10205 2668 c-3 -13 -23 -115 -45 -228 -22 -113 -69 -351 -105 -530
-35 -179 -66 -336 -68 -350 -3 -14 -28 -142 -56 -284 -29 -142 -50 -264 -48
-270 3 -8 64 -11 196 -11 184 0 192 1 196 20 4 17 25 141 39 230 2 17 7 48 11
70 l7 40 143 0 c79 0 146 -2 149 -5 4 -4 28 -134 41 -220 2 -14 7 -45 11 -70
4 -25 8 -49 8 -55 1 -6 77 -10 209 -10 203 0 208 0 203 20 -3 11 -24 115 -46
230 -23 116 -44 219 -46 230 -4 18 -17 85 -29 145 -3 14 -7 36 -10 50 -3 14
-7 36 -10 50 -4 22 -16 81 -29 145 -3 11 -21 103 -40 205 -20 102 -41 203 -46
225 -5 22 -24 112 -41 200 -17 88 -33 168 -35 178 -5 16 -27 17 -279 17 l-275
0 -5 -22z m281 -351 c1 -7 4 -37 8 -67 4 -30 11 -82 16 -115 5 -33 12 -82 15
-110 3 -27 8 -59 10 -71 3 -11 7 -40 10 -65 3 -24 7 -53 9 -64 2 -12 7 -47 11
-78 l7 -58 -93 3 c-87 3 -94 4 -92 23 5 39 13 93 32 216 11 68 25 162 31 209
6 47 13 96 15 110 2 14 5 39 7 57 2 31 10 36 14 10z"/>
<path d="M11963 1843 l2 -848 188 0 c104 0 191 4 194 9 3 5 6 159 6 342 l-1
334 37 1 c147 4 195 -22 215 -117 4 -17 9 -119 11 -228 4 -202 11 -299 25
-326 7 -13 36 -15 192 -14 100 1 186 2 190 3 4 0 5 11 3 23 -10 62 -14 152
-15 315 -2 280 -33 388 -132 461 l-46 35 48 36 c104 77 145 177 145 356 -1
209 -68 336 -216 409 -94 46 -182 55 -531 56 l-316 0 1 -847z m606 520 c44
-33 62 -82 62 -174 0 -144 -42 -194 -173 -205 -111 -9 -104 -25 -102 203 1
109 2 200 3 202 0 2 42 1 92 -1 68 -4 98 -10 118 -25z"/>
<path d="M13972 1843 l3 -848 270 0 c255 -1 354 7 440 33 116 35 237 140 293
256 70 142 105 356 101 618 -7 475 -137 700 -444 767 -68 15 -135 19 -374 20
l-291 2 2 -848z m539 527 c83 -23 127 -103 144 -260 9 -79 9 -438 0 -500 -24
-173 -47 -235 -103 -278 -29 -22 -48 -27 -109 -30 l-73 -4 0 541 0 541 53 0
c28 0 68 -5 88 -10z"/>
</g>
</svg>
