<?xml version="1.0" standalone="no"?>
<!DOCTYPE svg PUBLIC "-//W3C//DTD SVG 20010904//EN"
 "http://www.w3.org/TR/2001/REC-SVG-20010904/DTD/svg10.dtd">
<svg version="1.0" xmlns="http://www.w3.org/2000/svg"
 width="2000.000000pt" height="2000.000000pt" viewBox="0 0 2000.000000 2000.000000"
 preserveAspectRatio="xMidYMid meet">
<metadata>
Created by potrace 1.14, written by Peter Selinger 2001-2017
</metadata>
<g transform="translate(0.000000,2000.000000) scale(0.100000,-0.100000)"
fill="#000000" stroke="none">
<path d="M9660 19774 c-376 -48 -705 -224 -1199 -643 -378 -320 -655 -649
-1171 -1391 -462 -663 -736 -1014 -1172 -1501 -213 -239 -296 -314 -460 -417
-172 -108 -230 -154 -273 -212 -134 -182 -130 -396 10 -517 108 -95 282 -145
569 -163 710 -47 1389 234 2054 851 68 63 153 140 190 172 37 31 82 74 101 94
30 31 33 33 27 12 -3 -13 -78 -307 -166 -654 -304 -1199 -603 -2443 -826
-3435 -46 -206 -86 -385 -89 -397 l-5 -23 2750 0 2750 0 -5 23 c-3 12 -43 191
-89 397 -326 1449 -847 3566 -1222 4965 -126 470 -170 615 -305 1015 -196 579
-279 791 -421 1075 -233 468 -428 679 -673 730 -78 16 -305 28 -375 19z"/>
<path d="M5065 13696 c-325 -52 -584 -253 -682 -531 l-28 -80 -3 -2420 c-3
-2702 -8 -2503 68 -2660 96 -199 297 -357 545 -427 79 -23 86 -23 680 -23
l600 0 88 28 c284 89 479 262 564 502 l28 80 3 2433 c2 2675 6 2503 -58 2641
-98 209 -306 371 -570 442 -83 22 -98 23 -620 25 -398 2 -556 -1 -615 -10z"/>
<path d="M13655 13696 c-325 -52 -584 -253 -682 -531 l-28 -80 -3 -2420 c-3
-2702 -8 -2503 68 -2660 96 -199 297 -357 545 -427 79 -23 86 -23 680 -23
l600 0 88 28 c281 88 476 260 565 499 l27 73 3 2440 c3 2690 7 2506 -59 2645
-98 209 -306 370 -569 441 -83 22 -98 23 -620 25 -398 2 -556 -1 -615 -10z"/>
<path d="M2775 13109 c-261 -38 -483 -209 -558 -428 l-22 -66 -3 -1945 c-2
-1304 1 -1968 8 -2015 7 -46 25 -99 52 -155 75 -152 216 -266 413 -331 68 -23
80 -24 529 -27 499 -3 549 0 680 54 192 78 348 253 385 432 8 37 11 626 11
2000 0 1700 -2 1955 -15 2011 -44 184 -193 346 -391 423 -134 52 -207 58 -638
57 -215 -1 -418 -5 -451 -10z"/>
<path d="M16158 13105 c-288 -54 -507 -251 -548 -493 -7 -48 -10 -631 -8
-2027 l3 -1960 22 -57 c81 -213 268 -364 509 -413 69 -14 147 -16 540 -13
l459 3 90 32 c215 75 360 208 427 393 l23 65 0 1990 0 1990 -23 67 c-68 196
-240 347 -471 411 -71 19 -103 21 -511 23 -343 2 -451 0 -512 -11z"/>
<path d="M1310 10630 l0 -840 400 0 400 0 0 840 0 840 -400 0 -400 0 0 -840z"/>
<path d="M7017 11463 c-4 -3 -7 -381 -7 -840 l0 -833 2925 0 2925 0 0 840 0
840 -2918 0 c-1605 0 -2922 -3 -2925 -7z"/>
<path d="M17760 10630 l0 -840 465 0 465 0 0 840 0 840 -465 0 -465 0 0 -840z"/>
<path d="M7010 8952 c0 -726 -1 -762 -20 -838 -65 -257 -271 -476 -545 -580
-171 -64 -195 -66 -725 -71 -321 -3 -521 -1 -592 6 -126 13 -253 48 -356 96
l-73 34 -154 -24 c-214 -33 -435 -59 -880 -100 -478 -45 -532 -57 -804 -177
-313 -137 -574 -323 -634 -450 -66 -139 63 -321 368 -520 203 -133 621 -322
990 -448 714 -244 1698 -464 2700 -604 772 -108 1488 -171 2490 -218 369 -18
1987 -18 2340 0 1223 61 2232 167 3535 373 1053 166 1855 393 2440 690 498
252 771 542 683 727 -60 127 -321 313 -634 450 -272 120 -326 132 -804 177
-527 49 -922 98 -1087 135 -33 7 -48 3 -115 -31 -43 -22 -107 -49 -143 -60
-157 -50 -179 -51 -685 -56 -634 -6 -737 5 -944 103 -122 58 -201 115 -295
215 -61 64 -87 103 -126 183 -82 168 -80 149 -80 1001 l0 745 -2925 0 -2925 0
0 -758z"/>
<path d="M5840 5004 c-152 -25 -246 -70 -317 -148 -133 -148 -191 -397 -180
-776 8 -266 34 -406 104 -543 88 -175 228 -258 438 -259 185 -1 302 40 398
141 135 141 187 345 187 731 0 504 -116 753 -388 833 -54 16 -197 29 -242 21z
m154 -324 c68 -60 85 -167 86 -525 0 -452 -37 -585 -166 -585 -135 0 -172 101
-181 495 -9 374 14 541 83 610 31 31 40 35 89 35 46 0 59 -5 89 -30z"/>
<path d="M11860 5004 c-152 -25 -246 -70 -317 -148 -133 -148 -191 -397 -180
-776 8 -266 34 -406 104 -543 88 -175 228 -258 438 -259 185 -1 302 40 398
141 135 141 187 345 187 731 0 504 -116 753 -388 833 -54 16 -197 29 -242 21z
m154 -324 c68 -60 85 -167 86 -525 0 -452 -37 -585 -166 -585 -135 0 -172 101
-181 495 -9 374 14 541 83 610 31 31 40 35 89 35 46 0 59 -5 89 -30z"/>
<path d="M2806 4953 c2 -16 63 -381 134 -813 72 -432 132 -795 135 -807 5 -23
7 -23 194 -23 l189 0 6 28 c20 98 91 503 121 687 19 121 38 235 41 253 3 17 9
32 14 32 6 0 10 -2 10 -4 0 -34 130 -840 156 -968 l6 -28 188 0 188 0 6 28
c21 102 286 1604 286 1621 0 21 -2 21 -177 19 l-178 -3 -32 -285 c-17 -157
-44 -414 -59 -572 -17 -174 -33 -288 -39 -288 -6 0 -37 185 -74 443 -35 243
-73 501 -85 572 l-21 130 -157 3 c-87 1 -158 -1 -158 -5 0 -5 -36 -240 -79
-523 -44 -283 -82 -541 -86 -572 -5 -36 -12 -58 -20 -58 -8 0 -14 32 -19 108
-9 139 -51 593 -79 847 l-22 200 -197 3 -198 2 6 -27z"/>
<path d="M7448 4974 c-5 -4 -8 -380 -8 -836 l0 -828 185 0 185 0 0 341 0 341
99 -4 c95 -3 101 -5 130 -32 17 -17 36 -46 42 -65 5 -20 14 -151 19 -291 4
-140 11 -263 15 -272 6 -16 25 -18 184 -18 l178 0 -4 208 c-8 423 -37 527
-168 594 l-39 20 35 18 c134 69 210 256 182 448 -29 198 -115 303 -292 355
-58 17 -106 20 -401 24 -184 3 -338 2 -342 -3z m601 -303 c47 -33 64 -81 64
-176 0 -172 -54 -225 -230 -225 l-73 0 0 216 0 216 103 -4 c88 -3 107 -7 136
-27z"/>
<path d="M9447 4973 c-4 -3 -7 -379 -7 -835 l0 -828 185 0 185 0 0 252 0 252
61 93 c34 51 63 93 64 93 1 0 56 -155 121 -345 l118 -345 203 0 203 0 -25 68
c-14 37 -100 265 -191 507 l-166 440 186 323 c102 177 186 325 186 327 0 3
-92 5 -204 5 l-204 0 -121 -247 c-67 -137 -146 -297 -176 -358 l-54 -110 0
358 -1 357 -178 0 c-98 0 -182 -3 -185 -7z"/>
<path d="M13452 4318 c3 -611 5 -667 22 -718 58 -176 145 -258 321 -305 74
-20 267 -23 350 -5 142 29 261 113 316 223 65 127 64 117 64 822 l0 640 -187
3 -187 2 -3 -647 c-3 -636 -3 -649 -24 -688 -27 -52 -69 -76 -133 -77 -69 0
-110 25 -141 87 l-25 50 -3 638 -3 637 -185 0 -185 0 3 -662z"/>
<path d="M15430 4825 l0 -155 165 0 165 0 0 -680 0 -680 185 0 185 0 0 680 0
680 165 0 165 0 0 155 0 155 -515 0 -515 0 0 -155z"/>
<path d="M4135 2646 c4 -18 66 -393 139 -832 l132 -799 191 -3 191 -2 5 22
c14 55 119 658 142 807 32 219 37 222 60 50 16 -113 131 -813 142 -856 5 -23
6 -23 193 -23 l189 0 10 52 c6 29 71 395 146 813 74 418 137 770 140 783 l5
22 -183 0 -183 0 -33 -307 c-19 -170 -46 -427 -60 -572 -15 -147 -31 -266 -37
-268 -6 -2 -21 79 -38 204 -15 115 -52 370 -82 567 -30 198 -54 363 -54 368 0
4 -72 8 -159 8 l-160 0 -6 -42 c-104 -687 -172 -1108 -180 -1106 -6 1 -20 117
-32 263 -12 143 -35 393 -52 556 -17 162 -31 303 -31 312 0 15 -20 17 -200 17
l-201 0 6 -34z"/>
<path d="M6710 1845 l0 -835 190 0 190 0 0 835 0 835 -190 0 -190 0 0 -835z"/>
<path d="M8060 2525 l0 -155 274 -2 274 -3 -294 -560 -294 -560 0 -118 0 -117
492 2 493 3 20 148 21 147 -293 0 c-161 0 -293 2 -293 3 0 2 124 247 275 544
l275 541 0 141 0 141 -475 0 -475 0 0 -155z"/>
<path d="M10216 2663 c-3 -10 -75 -376 -161 -813 -86 -437 -159 -805 -162
-818 l-5 -22 188 2 189 3 17 110 c10 61 22 140 29 178 l11 67 153 0 c86 0 156
-4 160 -9 3 -6 18 -87 33 -180 l27 -171 192 0 c149 0 193 3 193 13 0 11 -312
1580 -325 1635 l-5 22 -265 0 c-242 0 -264 -1 -269 -17z m274 -298 c0 -15 92
-653 96 -667 5 -16 -5 -18 -105 -18 -61 0 -111 2 -111 4 0 2 15 104 34 227 19
123 40 267 46 319 15 123 18 140 30 140 6 0 10 -2 10 -5z"/>
<path d="M11970 1846 l0 -836 185 0 185 0 0 340 0 340 85 0 c116 0 157 -22
184 -100 8 -21 16 -135 21 -290 4 -140 11 -263 15 -272 6 -16 25 -18 184 -18
l178 0 -4 213 c-4 241 -16 372 -38 439 -20 56 -73 120 -125 149 l-40 22 50 29
c128 73 192 255 161 458 -28 178 -125 288 -297 336 -48 14 -122 18 -401 21
l-343 5 0 -836z m587 535 c69 -32 101 -131 82 -253 -18 -116 -65 -151 -203
-152 l-91 -1 -3 200 c-1 110 0 205 2 212 9 21 162 17 213 -6z"/>
<path d="M13980 1846 l0 -836 293 0 c260 0 303 2 371 20 177 45 299 164 360
349 75 227 87 638 25 879 -54 212 -178 344 -374 398 -47 13 -125 17 -367 21
l-308 5 0 -836z m542 532 c54 -16 101 -74 122 -148 27 -94 39 -324 27 -519
-20 -332 -72 -421 -244 -421 l-67 0 0 550 0 550 61 0 c34 0 79 -5 101 -12z"/>
</g>
</svg>
