<?xml version="1.0" standalone="no"?>
<!DOCTYPE svg PUBLIC "-//W3C//DTD SVG 20010904//EN"
 "http://www.w3.org/TR/2001/REC-SVG-20010904/DTD/svg10.dtd">
<svg version="1.0" xmlns="http://www.w3.org/2000/svg"
 width="2001.000000pt" height="2001.000000pt" viewBox="0 0 2001.000000 2001.000000"
 preserveAspectRatio="xMidYMid meet">
<metadata>
Created by potrace 1.14, written by Peter Selinger 2001-2017
</metadata>
<g transform="translate(0.000000,2001.000000) scale(0.100000,-0.100000)"
fill="#000000" stroke="none">
<path d="M9538 18705 c-2 -1 -27 -6 -57 -9 -103 -12 -289 -61 -366 -96 -296
-135 -449 -230 -751 -472 -185 -148 -282 -235 -444 -398 -137 -137 -234 -245
-365 -401 -140 -167 -428 -562 -727 -997 -124 -181 -433 -599 -558 -757 -30
-38 -60 -76 -67 -85 -48 -60 -191 -235 -208 -254 -5 -6 -35 -40 -65 -76 -140
-167 -365 -415 -465 -516 -123 -123 -172 -162 -325 -253 -134 -81 -230 -158
-279 -225 -26 -35 -46 -52 -59 -51 -48 3 -204 -17 -277 -36 -22 -6 -47 -13
-55 -14 -39 -8 -182 -72 -240 -107 -139 -85 -230 -170 -315 -297 -94 -142
-132 -279 -131 -473 1 -65 -2 -118 -5 -118 -3 0 -22 24 -43 54 -123 178 -360
313 -601 342 -136 16 -969 7 -1035 -11 -8 -2 -26 -6 -40 -9 -44 -7 -151 -46
-209 -76 -222 -113 -383 -327 -406 -541 -4 -35 -8 -308 -8 -606 l0 -543 -81
-1 c-45 0 -255 0 -467 -1 -212 0 -392 -4 -400 -9 -12 -7 -14 -163 -14 -980 0
-699 3 -976 11 -987 10 -13 71 -15 481 -15 l470 0 0 -541 c0 -574 3 -633 32
-718 56 -163 151 -284 303 -384 61 -41 187 -101 227 -109 9 -2 36 -8 61 -15
25 -6 70 -14 100 -17 70 -9 895 -9 975 -1 240 25 491 169 607 348 16 25 31 44
34 43 3 -2 7 -67 9 -145 3 -106 9 -160 24 -211 55 -185 152 -326 311 -451 76
-60 85 -65 170 -110 57 -29 221 -93 243 -94 4 0 40 -6 80 -13 53 -10 219 -13
642 -13 314 -1 590 2 615 6 25 4 62 9 82 12 153 24 380 133 507 245 13 12 26
21 28 21 3 0 -1 -46 -13 -123 -14 -100 -79 -258 -144 -353 -55 -80 -124 -177
-142 -199 -9 -11 -105 -129 -213 -262 -221 -272 -336 -388 -493 -494 -100 -68
-221 -159 -253 -191 -51 -52 -220 -166 -304 -207 -181 -89 -505 -183 -775
-226 -19 -3 -57 -10 -85 -15 -27 -5 -66 -11 -85 -14 -38 -5 -243 -34 -300 -42
-19 -2 -57 -7 -85 -9 -27 -3 -72 -7 -100 -10 -184 -21 -214 -25 -280 -30 -65
-6 -144 -13 -215 -20 -25 -3 -76 -7 -115 -10 -38 -2 -86 -7 -105 -9 -19 -3
-62 -8 -95 -11 -81 -8 -112 -13 -165 -26 -61 -15 -228 -68 -265 -84 -16 -7
-46 -18 -65 -26 -56 -20 -303 -144 -377 -189 -232 -141 -379 -287 -399 -396
-9 -48 16 -131 58 -195 228 -354 1023 -733 2188 -1044 135 -36 254 -67 265
-69 11 -2 76 -18 145 -34 151 -36 495 -113 524 -117 12 -2 79 -15 149 -29 71
-14 143 -28 160 -31 18 -3 39 -8 47 -10 8 -2 31 -6 50 -9 51 -8 130 -22 265
-46 66 -12 134 -23 150 -26 17 -2 46 -6 65 -10 19 -3 48 -7 63 -9 93 -13 114
-16 127 -20 8 -2 36 -7 62 -10 26 -3 62 -7 80 -10 43 -6 241 -33 293 -40 22
-3 117 -14 210 -25 94 -12 186 -23 205 -25 19 -2 67 -7 105 -10 39 -4 77 -8
85 -10 8 -2 49 -7 90 -10 41 -4 87 -8 102 -10 15 -2 68 -7 117 -10 50 -4 97
-13 104 -19 8 -6 53 -117 101 -246 49 -129 103 -273 121 -320 18 -47 71 -186
118 -310 243 -645 321 -848 339 -883 30 -60 85 -114 144 -143 47 -23 64 -26
122 -22 99 7 170 50 227 136 20 30 240 543 516 1202 26 63 83 198 127 300 l79
185 179 -2 c378 -5 1130 -3 1364 3 135 3 283 7 329 8 l85 1 83 -220 c45 -121
91 -242 102 -270 197 -526 431 -1135 449 -1171 26 -52 83 -109 136 -137 32
-17 58 -22 116 -22 82 0 127 18 185 73 30 27 95 124 95 141 0 4 6 21 14 37 12
26 142 332 243 574 19 47 41 99 49 115 7 17 66 154 129 305 64 151 123 289
130 305 7 17 36 86 65 155 80 193 103 244 113 251 5 4 48 10 96 14 47 4 93 8
101 10 8 1 44 5 80 9 36 3 99 11 140 16 41 5 98 12 125 15 28 3 66 8 85 10 19
2 58 7 85 10 28 4 60 8 73 10 12 1 50 6 85 10 34 4 70 9 81 11 10 2 44 6 75
10 31 3 63 8 72 9 9 2 40 6 69 10 29 4 61 8 70 10 9 2 41 6 71 10 30 3 61 8
69 10 8 2 39 7 69 10 30 4 61 8 70 10 25 4 92 14 141 20 25 3 52 8 60 10 8 2
38 7 65 10 28 3 75 9 105 15 30 5 73 12 95 15 38 6 55 9 123 19 15 3 70 12
122 21 52 9 109 18 125 21 28 4 104 18 170 30 17 3 62 11 100 19 39 8 81 16
95 19 14 3 34 7 45 9 25 6 102 19 112 19 5 0 19 4 31 9 20 8 99 26 194 44 50
10 326 83 498 131 305 86 660 210 847 295 23 10 44 19 47 19 9 0 283 135 351
173 179 99 357 228 465 336 160 160 214 297 163 411 -82 185 -540 472 -965
604 -62 20 -129 38 -148 41 -19 3 -42 8 -50 10 -14 3 -45 7 -195 21 -27 2 -70
7 -95 9 -25 3 -72 7 -105 10 -33 3 -87 7 -120 10 -33 4 -80 8 -105 10 -25 2
-74 7 -110 10 -35 3 -78 8 -95 10 -53 7 -140 17 -265 30 -54 6 -134 17 -215
30 -22 4 -53 9 -70 10 -16 2 -55 8 -85 14 -30 6 -70 13 -87 16 -286 47 -621
144 -783 225 -64 32 -196 115 -215 136 -27 29 -231 188 -320 249 -178 122
-282 219 -421 393 -43 53 -117 144 -164 202 -145 175 -320 414 -320 437 0 3
-6 14 -14 22 -18 20 -72 161 -85 223 -17 74 -33 248 -23 248 2 0 33 -28 68
-63 155 -156 388 -266 622 -295 76 -9 1141 -9 1215 1 433 54 805 369 863 733
4 27 9 52 10 57 1 4 2 62 3 129 l1 123 34 -51 c124 -184 347 -315 601 -352 55
-8 917 -7 985 1 332 40 613 258 694 538 27 94 28 122 29 690 l0 556 539 0
c408 0 542 3 551 12 18 18 18 1936 0 1961 -12 17 -45 18 -530 19 -285 0 -527
1 -539 1 l-21 0 0 568 c0 507 -2 574 -18 637 -24 94 -56 165 -109 239 -137
192 -370 321 -619 342 -105 9 -839 9 -935 0 -251 -24 -491 -157 -619 -343
l-38 -56 -6 144 c-4 85 -13 171 -23 208 -84 313 -355 564 -708 657 -135 35
-223 39 -773 38 -455 -1 -554 -3 -632 -17 -239 -43 -423 -136 -578 -292 -103
-104 -116 -122 -169 -230 -84 -169 -80 -117 -83 -950 -2 -407 -4 -787 -6 -844
l-2 -104 -323 1 c-178 0 -325 2 -327 4 -2 2 -6 17 -9 33 -3 17 -10 45 -15 63
-5 17 -8 32 -6 32 3 0 0 11 -5 26 -6 14 -12 37 -15 52 -2 15 -21 92 -41 172
-19 80 -37 152 -39 160 -2 8 -9 38 -15 65 -6 28 -13 57 -15 65 -2 8 -13 53
-25 100 -12 47 -23 92 -25 100 -13 62 -356 1439 -451 1810 -37 140 -68 266
-71 279 -2 14 -6 28 -9 33 -3 4 -7 16 -9 25 -2 10 -22 90 -45 178 -23 88 -47
185 -55 215 -17 71 -141 539 -160 605 -8 28 -48 172 -89 320 -41 149 -98 338
-126 420 -28 83 -87 258 -131 389 -72 214 -197 558 -233 640 -7 17 -37 87 -66
156 -158 371 -348 691 -512 858 -116 118 -239 188 -366 207 -21 3 -49 8 -62
11 -26 6 -317 14 -322 9z m-1518 -4237 c-18 -67 -33 -130 -35 -138 -6 -29 -46
-186 -61 -240 -8 -30 -17 -62 -19 -70 -1 -9 -20 -81 -40 -160 -41 -162 -43
-172 -49 -200 -3 -11 -12 -48 -21 -83 -9 -34 -18 -69 -20 -77 -7 -32 -167
-680 -191 -774 -14 -55 -27 -107 -29 -115 -4 -18 -31 -133 -105 -436 -52 -212
-56 -230 -65 -275 -10 -52 -54 -212 -59 -217 -4 -4 -413 -7 -547 -4 l-26 1 -1
808 c0 444 -3 823 -7 842 -17 96 -33 148 -69 233 -15 35 -15 38 1 43 36 12
250 119 328 164 288 167 502 332 850 656 144 133 189 173 193 169 2 -2 -11
-59 -28 -127z m-1168 -4817 c2 -50 -3 -93 -17 -141 -2 -8 -6 -26 -9 -40 -2
-14 -10 -47 -16 -75 -6 -27 -13 -59 -16 -70 -2 -11 -8 -43 -14 -71 -6 -28 -13
-64 -16 -79 -3 -16 -7 -31 -9 -33 -2 -2 -3 120 -3 271 l1 275 48 -1 49 0 2
-36z m6257 -420 c0 -251 -2 -451 -4 -446 -3 6 -16 69 -31 140 -14 72 -28 139
-30 150 -2 11 -7 36 -10 55 -3 19 -8 38 -10 41 -2 3 -6 19 -8 35 -3 16 -8 40
-11 54 -3 14 -7 36 -10 50 -7 34 -10 51 -35 159 -11 52 -19 106 -16 120 3 14
7 42 10 62 l6 36 75 0 75 -1 -1 -455z"/>
<path d="M3615 16510 c4 -12 47 -125 96 -252 l89 -231 -139 -226 c-76 -124
-137 -228 -135 -230 2 -2 112 38 244 89 133 51 249 90 258 87 9 -2 113 -63
231 -136 118 -72 216 -130 217 -128 3 3 -171 471 -182 488 -2 3 53 97 121 209
69 112 125 205 125 208 0 3 7 14 17 24 9 10 14 20 12 22 -2 2 -116 -38 -252
-90 l-248 -95 -72 44 c-40 24 -143 88 -230 141 -122 75 -157 92 -152 76z"/>
<path d="M15948 16390 l-227 -139 -68 24 c-105 37 -380 142 -403 155 -12 6
-24 9 -27 6 -3 -3 33 -67 79 -143 188 -306 190 -310 183 -335 -4 -12 -45 -122
-91 -242 -46 -121 -84 -223 -84 -227 0 -12 -6 -15 320 184 l135 83 244 -93
c134 -52 246 -92 248 -89 2 2 -57 104 -132 227 -78 127 -135 229 -132 238 3 9
35 95 72 191 97 253 114 300 112 300 -1 0 -104 -63 -229 -140z"/>
<path d="M4956 15653 c8 -21 19 -47 23 -58 26 -60 52 -134 53 -151 1 -10 -29
-67 -65 -126 -37 -59 -67 -110 -67 -112 0 -2 57 18 127 44 l128 49 113 -70
c62 -39 115 -70 116 -68 2 2 -18 60 -44 128 l-47 123 70 115 c38 62 68 115 66
117 -2 2 -59 -18 -127 -45 l-123 -48 -113 69 c-62 39 -116 70 -119 70 -3 0 1
-17 9 -37z"/>
<path d="M14721 15620 l-114 -69 -51 21 c-28 11 -86 33 -128 49 l-77 28 28
-47 c15 -26 47 -77 69 -115 23 -37 42 -72 42 -77 0 -5 -20 -62 -45 -126 -25
-64 -44 -118 -42 -120 2 -2 54 28 116 65 l113 69 64 -24 c35 -13 93 -35 129
-49 l65 -24 -27 47 c-15 26 -46 77 -70 115 -24 37 -43 71 -43 75 0 4 20 60 46
126 25 65 43 120 41 122 -2 2 -54 -28 -116 -66z"/>
<path d="M3244 14895 c4 -11 21 -56 38 -100 16 -44 33 -88 39 -97 16 -32 9
-52 -57 -158 -62 -102 -67 -125 -21 -102 12 6 63 27 113 46 l92 35 78 -47 c44
-27 95 -58 114 -70 19 -12 36 -19 38 -17 3 2 -17 59 -43 125 l-47 121 59 97
c32 53 64 106 71 119 l12 22 -67 -25 c-38 -14 -96 -36 -130 -49 l-61 -23 -69
42 c-148 92 -167 102 -159 81z"/>
<path d="M16465 14864 c-38 -24 -90 -54 -114 -67 l-44 -24 -76 30 c-42 16 -97
38 -123 48 -48 19 -61 13 -33 -15 8 -8 15 -17 15 -20 0 -4 23 -43 51 -88 28
-45 51 -89 51 -98 1 -12 -37 -117 -82 -227 -5 -13 -7 -23 -4 -23 4 0 57 32
119 70 113 70 114 70 147 56 75 -33 218 -84 218 -78 0 4 -31 56 -69 116 l-69
110 34 94 c19 52 39 103 45 114 24 46 4 46 -66 2z"/>
</g>
</svg>
